<svg width="49" height="54" viewBox="0 0 49 54" fill="none" xmlns="http://www.w3.org/2000/svg">
<path d="M19.4766 43L16.6289 35.3535H6.55664L3.74414 43H0L9.80859 17.1953H13.5L23.2559 43H19.4766ZM15.627 32.2246L12.9199 24.6484C12.8379 24.3906 12.709 24.0039 12.5332 23.4883C12.3691 22.9727 12.1992 22.4395 12.0234 21.8887C11.8594 21.3379 11.7246 20.8809 11.6191 20.5176C11.502 20.998 11.3672 21.5078 11.2148 22.0469C11.0625 22.5742 10.9102 23.0723 10.7578 23.541C10.6172 23.998 10.5 24.3672 10.4062 24.6484L7.66406 32.2246H15.627ZM33.7324 23.2949C36.123 23.2949 37.9102 23.8281 39.0938 24.8945C40.2773 25.9492 40.8691 27.6191 40.8691 29.9043V43H38.3379L37.6523 40.1875H37.5117C36.9727 40.8906 36.4102 41.4766 35.8242 41.9453C35.2383 42.4141 34.5586 42.7656 33.7852 43C33.0234 43.2344 32.0918 43.3516 30.9902 43.3516C29.8184 43.3516 28.7754 43.1406 27.8613 42.7188C26.9473 42.2969 26.2266 41.6641 25.6992 40.8203C25.1836 39.9648 24.9258 38.8809 24.9258 37.5684C24.9258 35.5996 25.6816 34.1055 27.1934 33.0859C28.7051 32.0664 30.9961 31.5098 34.0664 31.416L37.4062 31.2754V30.1855C37.4062 28.6738 37.0664 27.6074 36.3867 26.9863C35.7188 26.3652 34.7812 26.0547 33.5742 26.0547C32.5781 26.0547 31.623 26.2012 30.709 26.4941C29.7949 26.7754 28.916 27.1152 28.0723 27.5137L26.9473 24.9473C27.8613 24.4785 28.8984 24.0859 30.0586 23.7695C31.2305 23.4531 32.4551 23.2949 33.7324 23.2949ZM37.3711 33.5957L34.6641 33.7188C32.4258 33.8008 30.8496 34.1758 29.9355 34.8438C29.0332 35.5 28.582 36.4199 28.582 37.6035C28.582 38.6348 28.8926 39.3906 29.5137 39.8711C30.1348 40.3516 30.9551 40.5918 31.9746 40.5918C33.5449 40.5918 34.834 40.1523 35.8418 39.2734C36.8613 38.3828 37.3711 37.0703 37.3711 35.3359V33.5957Z" fill="#E87C40"/>
<path d="M24.4766 39L21.6289 31.3535H11.5566L8.74414 39H5L14.8086 13.1953H18.5L28.2559 39H24.4766ZM20.627 28.2246L17.9199 20.6484C17.8379 20.3906 17.709 20.0039 17.5332 19.4883C17.3691 18.9727 17.1992 18.4395 17.0234 17.8887C16.8594 17.3379 16.7246 16.8809 16.6191 16.5176C16.502 16.998 16.3672 17.5078 16.2148 18.0469C16.0625 18.5742 15.9102 19.0723 15.7578 19.541C15.6172 19.998 15.5 20.3672 15.4062 20.6484L12.6641 28.2246H20.627ZM38.7324 19.2949C41.123 19.2949 42.9102 19.8281 44.0938 20.8945C45.2773 21.9492 45.8691 23.6191 45.8691 25.9043V39H43.3379L42.6523 36.1875H42.5117C41.9727 36.8906 41.4102 37.4766 40.8242 37.9453C40.2383 38.4141 39.5586 38.7656 38.7852 39C38.0234 39.2344 37.0918 39.3516 35.9902 39.3516C34.8184 39.3516 33.7754 39.1406 32.8613 38.7188C31.9473 38.2969 31.2266 37.6641 30.6992 36.8203C30.1836 35.9648 29.9258 34.8809 29.9258 33.5684C29.9258 31.5996 30.6816 30.1055 32.1934 29.0859C33.7051 28.0664 35.9961 27.5098 39.0664 27.416L42.4062 27.2754V26.1855C42.4062 24.6738 42.0664 23.6074 41.3867 22.9863C40.7188 22.3652 39.7812 22.0547 38.5742 22.0547C37.5781 22.0547 36.623 22.2012 35.709 22.4941C34.7949 22.7754 33.916 23.1152 33.0723 23.5137L31.9473 20.9473C32.8613 20.4785 33.8984 20.0859 35.0586 19.7695C36.2305 19.4531 37.4551 19.2949 38.7324 19.2949ZM42.3711 29.5957L39.6641 29.7188C37.4258 29.8008 35.8496 30.1758 34.9355 30.8438C34.0332 31.5 33.582 32.4199 33.582 33.6035C33.582 34.6348 33.8926 35.3906 34.5137 35.8711C35.1348 36.3516 35.9551 36.5918 36.9746 36.5918C38.5449 36.5918 39.834 36.1523 40.8418 35.2734C41.8613 34.3828 42.3711 33.0703 42.3711 31.3359V29.5957Z" fill="#110303"/>
</svg>
